<mxfile host="65bd71144e" compressed="true">
    <diagram id="0iN4cRk-O3f9heEpMg_g" name="Page-1">
        <mxGraphModel dx="772" dy="318" grid="1" gridSize="10" guides="1" tooltips="1" connect="1" arrows="1" fold="1" page="1" pageScale="1" pageWidth="1654" pageHeight="1169" math="0" shadow="0">
            <root>
                <mxCell id="0"/>
                <mxCell id="1" parent="0"/>
                <mxCell id="29aiM7jhphycKeGwUz8S-75" value="" style="rounded=0;whiteSpace=wrap;html=1;strokeColor=#000000;strokeWidth=1;fillColor=none;fontSize=12;align=center;" parent="1" vertex="1">
                    <mxGeometry x="370" y="120" width="1000" height="860" as="geometry"/>
                </mxCell>
                <mxCell id="29aiM7jhphycKeGwUz8S-73" value="" style="rounded=0;whiteSpace=wrap;html=1;dashed=1;strokeColor=#000000;fillColor=none;fontSize=10;align=center;perimeterSpacing=0;strokeWidth=1;" parent="1" vertex="1">
                    <mxGeometry x="392.5" y="205" width="895" height="610" as="geometry"/>
                </mxCell>
                <mxCell id="29aiM7jhphycKeGwUz8S-50" value="OPCODE [7:0]" style="text;html=1;align=left;verticalAlign=middle;resizable=0;points=[];autosize=1;fontSize=10;" parent="1" vertex="1">
                    <mxGeometry x="480" y="300" width="80" height="20" as="geometry"/>
                </mxCell>
                <mxCell id="29aiM7jhphycKeGwUz8S-15" style="edgeStyle=orthogonalEdgeStyle;rounded=0;orthogonalLoop=1;jettySize=auto;html=1;exitX=1;exitY=0.75;exitDx=0;exitDy=0;" parent="1" source="29aiM7jhphycKeGwUz8S-2" target="29aiM7jhphycKeGwUz8S-3" edge="1">
                    <mxGeometry relative="1" as="geometry">
                        <Array as="points">
                            <mxPoint x="640" y="350"/>
                        </Array>
                    </mxGeometry>
                </mxCell>
                <mxCell id="29aiM7jhphycKeGwUz8S-47" style="edgeStyle=orthogonalEdgeStyle;rounded=0;orthogonalLoop=1;jettySize=auto;html=1;exitX=0.613;exitY=1.006;exitDx=0;exitDy=0;entryX=1;entryY=0.5;entryDx=0;entryDy=0;fontSize=10;exitPerimeter=0;" parent="1" source="29aiM7jhphycKeGwUz8S-2" target="29aiM7jhphycKeGwUz8S-17" edge="1">
                    <mxGeometry relative="1" as="geometry">
                        <Array as="points">
                            <mxPoint x="610" y="381"/>
                            <mxPoint x="610" y="450"/>
                            <mxPoint x="970" y="450"/>
                        </Array>
                    </mxGeometry>
                </mxCell>
                <mxCell id="29aiM7jhphycKeGwUz8S-48" style="edgeStyle=orthogonalEdgeStyle;rounded=0;orthogonalLoop=1;jettySize=auto;html=1;exitX=0.5;exitY=1;exitDx=0;exitDy=0;entryX=1;entryY=0.5;entryDx=0;entryDy=0;fontSize=10;" parent="1" source="29aiM7jhphycKeGwUz8S-2" target="29aiM7jhphycKeGwUz8S-31" edge="1">
                    <mxGeometry relative="1" as="geometry">
                        <Array as="points">
                            <mxPoint x="600" y="460"/>
                            <mxPoint x="1030" y="460"/>
                        </Array>
                    </mxGeometry>
                </mxCell>
                <mxCell id="29aiM7jhphycKeGwUz8S-49" style="edgeStyle=orthogonalEdgeStyle;rounded=0;orthogonalLoop=1;jettySize=auto;html=1;exitX=0.25;exitY=1;exitDx=0;exitDy=0;fontSize=10;entryX=0.504;entryY=0.83;entryDx=0;entryDy=0;entryPerimeter=0;strokeWidth=2;" parent="1" source="29aiM7jhphycKeGwUz8S-2" target="29aiM7jhphycKeGwUz8S-42" edge="1">
                    <mxGeometry relative="1" as="geometry">
                        <Array as="points">
                            <mxPoint x="580" y="470"/>
                            <mxPoint x="1120" y="470"/>
                        </Array>
                    </mxGeometry>
                </mxCell>
                <mxCell id="29aiM7jhphycKeGwUz8S-2" value="Control Unit" style="rounded=0;whiteSpace=wrap;html=1;" parent="1" vertex="1">
                    <mxGeometry x="560" y="260" width="80" height="120" as="geometry"/>
                </mxCell>
                <mxCell id="29aiM7jhphycKeGwUz8S-19" style="edgeStyle=orthogonalEdgeStyle;rounded=0;orthogonalLoop=1;jettySize=auto;html=1;exitX=1;exitY=0.25;exitDx=0;exitDy=0;entryX=0.25;entryY=1;entryDx=0;entryDy=0;strokeWidth=2;" parent="1" source="29aiM7jhphycKeGwUz8S-3" target="29aiM7jhphycKeGwUz8S-17" edge="1">
                    <mxGeometry relative="1" as="geometry"/>
                </mxCell>
                <mxCell id="29aiM7jhphycKeGwUz8S-23" style="edgeStyle=orthogonalEdgeStyle;rounded=0;orthogonalLoop=1;jettySize=auto;html=1;exitX=1;exitY=0.25;exitDx=0;exitDy=0;entryX=0;entryY=0.5;entryDx=0;entryDy=0;strokeWidth=2;" parent="1" source="29aiM7jhphycKeGwUz8S-3" target="29aiM7jhphycKeGwUz8S-16" edge="1">
                    <mxGeometry relative="1" as="geometry">
                        <Array as="points">
                            <mxPoint x="870" y="280"/>
                            <mxPoint x="870" y="320"/>
                        </Array>
                    </mxGeometry>
                </mxCell>
                <mxCell id="29aiM7jhphycKeGwUz8S-46" style="edgeStyle=orthogonalEdgeStyle;rounded=0;orthogonalLoop=1;jettySize=auto;html=1;exitX=1;exitY=0.75;exitDx=0;exitDy=0;entryX=-0.016;entryY=0.735;entryDx=0;entryDy=0;entryPerimeter=0;fontSize=10;strokeWidth=2;" parent="1" source="29aiM7jhphycKeGwUz8S-3" target="29aiM7jhphycKeGwUz8S-42" edge="1">
                    <mxGeometry relative="1" as="geometry"/>
                </mxCell>
                <mxCell id="29aiM7jhphycKeGwUz8S-3" value="8x8 Register File" style="rounded=0;whiteSpace=wrap;html=1;" parent="1" vertex="1">
                    <mxGeometry x="780" y="240" width="80" height="160" as="geometry"/>
                </mxCell>
                <mxCell id="29aiM7jhphycKeGwUz8S-8" style="edgeStyle=orthogonalEdgeStyle;rounded=0;orthogonalLoop=1;jettySize=auto;html=1;exitX=0;exitY=0.5;exitDx=0;exitDy=0;entryX=0;entryY=0.5;entryDx=0;entryDy=0;strokeWidth=2;" parent="1" source="29aiM7jhphycKeGwUz8S-4" target="29aiM7jhphycKeGwUz8S-2" edge="1">
                    <mxGeometry relative="1" as="geometry">
                        <Array as="points">
                            <mxPoint x="470" y="870"/>
                            <mxPoint x="470" y="320"/>
                        </Array>
                    </mxGeometry>
                </mxCell>
                <mxCell id="29aiM7jhphycKeGwUz8S-11" style="edgeStyle=orthogonalEdgeStyle;rounded=0;orthogonalLoop=1;jettySize=auto;html=1;exitX=0;exitY=0.5;exitDx=0;exitDy=0;entryX=0;entryY=0.125;entryDx=0;entryDy=0;entryPerimeter=0;strokeWidth=2;" parent="1" source="29aiM7jhphycKeGwUz8S-4" target="29aiM7jhphycKeGwUz8S-3" edge="1">
                    <mxGeometry relative="1" as="geometry">
                        <mxPoint x="720" y="260" as="targetPoint"/>
                        <Array as="points">
                            <mxPoint x="470" y="870"/>
                            <mxPoint x="470" y="200"/>
                            <mxPoint x="680" y="200"/>
                            <mxPoint x="680" y="260"/>
                        </Array>
                    </mxGeometry>
                </mxCell>
                <mxCell id="29aiM7jhphycKeGwUz8S-12" style="edgeStyle=orthogonalEdgeStyle;rounded=0;orthogonalLoop=1;jettySize=auto;html=1;exitX=0;exitY=0.5;exitDx=0;exitDy=0;strokeWidth=2;" parent="1" source="29aiM7jhphycKeGwUz8S-4" target="29aiM7jhphycKeGwUz8S-3" edge="1">
                    <mxGeometry relative="1" as="geometry">
                        <mxPoint x="720" y="290" as="targetPoint"/>
                        <Array as="points">
                            <mxPoint x="470" y="870"/>
                            <mxPoint x="470" y="210"/>
                            <mxPoint x="670" y="210"/>
                            <mxPoint x="670" y="291"/>
                        </Array>
                    </mxGeometry>
                </mxCell>
                <mxCell id="29aiM7jhphycKeGwUz8S-13" style="edgeStyle=orthogonalEdgeStyle;rounded=0;orthogonalLoop=1;jettySize=auto;html=1;exitX=0;exitY=0.5;exitDx=0;exitDy=0;entryX=0;entryY=0.5;entryDx=0;entryDy=0;strokeWidth=2;" parent="1" source="29aiM7jhphycKeGwUz8S-4" target="29aiM7jhphycKeGwUz8S-3" edge="1">
                    <mxGeometry relative="1" as="geometry">
                        <Array as="points">
                            <mxPoint x="470" y="870"/>
                            <mxPoint x="470" y="220"/>
                            <mxPoint x="660" y="220"/>
                            <mxPoint x="660" y="320"/>
                        </Array>
                    </mxGeometry>
                </mxCell>
                <mxCell id="29aiM7jhphycKeGwUz8S-33" style="edgeStyle=orthogonalEdgeStyle;rounded=0;orthogonalLoop=1;jettySize=auto;html=1;exitX=0;exitY=0.5;exitDx=0;exitDy=0;entryX=0.25;entryY=1;entryDx=0;entryDy=0;fontSize=10;strokeWidth=2;" parent="1" source="29aiM7jhphycKeGwUz8S-4" target="29aiM7jhphycKeGwUz8S-31" edge="1">
                    <mxGeometry relative="1" as="geometry">
                        <Array as="points">
                            <mxPoint x="470" y="870"/>
                            <mxPoint x="470" y="190"/>
                            <mxPoint x="1000" y="190"/>
                            <mxPoint x="1000" y="260"/>
                        </Array>
                    </mxGeometry>
                </mxCell>
                <mxCell id="29aiM7jhphycKeGwUz8S-4" value="Instruction Memory" style="rounded=0;whiteSpace=wrap;html=1;" parent="1" vertex="1">
                    <mxGeometry x="573" y="790" width="80" height="160" as="geometry"/>
                </mxCell>
                <mxCell id="29aiM7jhphycKeGwUz8S-6" value="PC" style="rounded=0;whiteSpace=wrap;html=1;" parent="1" vertex="1">
                    <mxGeometry x="560" y="500" width="80" height="40" as="geometry"/>
                </mxCell>
                <mxCell id="29aiM7jhphycKeGwUz8S-20" style="edgeStyle=orthogonalEdgeStyle;rounded=0;orthogonalLoop=1;jettySize=auto;html=1;exitX=1;exitY=0.5;exitDx=0;exitDy=0;entryX=0.75;entryY=1;entryDx=0;entryDy=0;strokeWidth=2;" parent="1" source="29aiM7jhphycKeGwUz8S-16" target="29aiM7jhphycKeGwUz8S-17" edge="1">
                    <mxGeometry relative="1" as="geometry"/>
                </mxCell>
                <mxCell id="29aiM7jhphycKeGwUz8S-16" value="2's Comp" style="rounded=0;whiteSpace=wrap;html=1;" parent="1" vertex="1">
                    <mxGeometry x="890" y="305" width="50" height="30" as="geometry"/>
                </mxCell>
                <mxCell id="29aiM7jhphycKeGwUz8S-32" style="edgeStyle=orthogonalEdgeStyle;rounded=0;orthogonalLoop=1;jettySize=auto;html=1;exitX=0.5;exitY=0;exitDx=0;exitDy=0;entryX=0.75;entryY=1;entryDx=0;entryDy=0;fontSize=10;strokeWidth=2;" parent="1" source="29aiM7jhphycKeGwUz8S-17" target="29aiM7jhphycKeGwUz8S-31" edge="1">
                    <mxGeometry relative="1" as="geometry"/>
                </mxCell>
                <mxCell id="29aiM7jhphycKeGwUz8S-17" value="M&lt;br&gt;U&lt;br&gt;X" style="shape=trapezoid;perimeter=trapezoidPerimeter;whiteSpace=wrap;html=1;rotation=90;horizontal=0;" parent="1" vertex="1">
                    <mxGeometry x="930" y="286.25" width="80" height="27.5" as="geometry"/>
                </mxCell>
                <mxCell id="29aiM7jhphycKeGwUz8S-24" value="READREG2 [2:0]" style="text;html=1;align=left;verticalAlign=middle;resizable=0;points=[];autosize=1;fontSize=10;" parent="1" vertex="1">
                    <mxGeometry x="687" y="240" width="90" height="20" as="geometry"/>
                </mxCell>
                <mxCell id="29aiM7jhphycKeGwUz8S-25" value="READREG1 [2:0]" style="text;html=1;align=left;verticalAlign=middle;resizable=0;points=[];autosize=1;fontSize=10;" parent="1" vertex="1">
                    <mxGeometry x="687" y="270.25" width="90" height="20" as="geometry"/>
                </mxCell>
                <mxCell id="29aiM7jhphycKeGwUz8S-26" value="WRITEREG [2:0]" style="text;html=1;align=left;verticalAlign=middle;resizable=0;points=[];autosize=1;fontSize=10;" parent="1" vertex="1">
                    <mxGeometry x="687" y="300" width="90" height="20" as="geometry"/>
                </mxCell>
                <mxCell id="29aiM7jhphycKeGwUz8S-27" value="WRITEENABLE" style="text;html=1;align=left;verticalAlign=middle;resizable=0;points=[];autosize=1;fontSize=10;" parent="1" vertex="1">
                    <mxGeometry x="687" y="330" width="90" height="20" as="geometry"/>
                </mxCell>
                <mxCell id="29aiM7jhphycKeGwUz8S-30" value="REGOUT2 [7:0]" style="text;html=1;strokeColor=none;fillColor=none;align=center;verticalAlign=middle;whiteSpace=wrap;rounded=0;fontSize=10;" parent="1" vertex="1">
                    <mxGeometry x="860" y="260" width="80" height="20" as="geometry"/>
                </mxCell>
                <mxCell id="29aiM7jhphycKeGwUz8S-43" style="edgeStyle=orthogonalEdgeStyle;rounded=0;orthogonalLoop=1;jettySize=auto;html=1;exitX=0.5;exitY=0;exitDx=0;exitDy=0;fontSize=10;strokeWidth=2;" parent="1" source="29aiM7jhphycKeGwUz8S-31" edge="1">
                    <mxGeometry relative="1" as="geometry">
                        <mxPoint x="1079" y="280" as="targetPoint"/>
                    </mxGeometry>
                </mxCell>
                <mxCell id="29aiM7jhphycKeGwUz8S-31" value="M&lt;br&gt;U&lt;br&gt;X" style="shape=trapezoid;perimeter=trapezoidPerimeter;whiteSpace=wrap;html=1;rotation=90;horizontal=0;" parent="1" vertex="1">
                    <mxGeometry x="990" y="266.5" width="80" height="27.5" as="geometry"/>
                </mxCell>
                <mxCell id="29aiM7jhphycKeGwUz8S-34" value="IMMEDIATE [7:0]" style="text;html=1;align=center;verticalAlign=middle;resizable=0;points=[];autosize=1;fontSize=10;" parent="1" vertex="1">
                    <mxGeometry x="575" y="170" width="90" height="20" as="geometry"/>
                </mxCell>
                <mxCell id="29aiM7jhphycKeGwUz8S-44" style="edgeStyle=orthogonalEdgeStyle;rounded=0;orthogonalLoop=1;jettySize=auto;html=1;exitX=0.702;exitY=0.507;exitDx=0;exitDy=0;entryX=-0.005;entryY=0.864;entryDx=0;entryDy=0;entryPerimeter=0;fontSize=10;exitPerimeter=0;strokeWidth=2;" parent="1" source="29aiM7jhphycKeGwUz8S-42" target="29aiM7jhphycKeGwUz8S-3" edge="1">
                    <mxGeometry relative="1" as="geometry">
                        <Array as="points">
                            <mxPoint x="1136" y="325"/>
                            <mxPoint x="1180" y="325"/>
                            <mxPoint x="1180" y="440"/>
                            <mxPoint x="760" y="440"/>
                            <mxPoint x="760" y="378"/>
                        </Array>
                    </mxGeometry>
                </mxCell>
                <mxCell id="29aiM7jhphycKeGwUz8S-42" value="&amp;nbsp; &amp;nbsp; &amp;nbsp; &amp;nbsp;ALU" style="shape=stencil(vZXdjoMgEIWfhtsGYY3XG3f3PailKykFA/Tv7TuKNmJL2zRiYgwwx+8wZAYRLW3NGo4IrhH9QYRkGMMb5qfJnNmGV84vHpkRbC25j1hn9I6fxMb1DKFqboRro/QX4W/QtM9tQMtKKwU0oZUNJBPhSA4mTChg4rM36bd1CWYN+O6546bfvF9F5O9jl1W+iE+2TDahy5Bb6myS+YT5ZAvVQCqfbDYXWoIg1mMj1ZpVu3+jD2rzkhaRjkRbbfhr2E0tpPQXx/uH1rD2hrnTPVQP3+z1kUcb4NlhPqVKoUbUIsSSPA23mIs7aZvhhp+ZmxczYafcNNv9oh9jK6ltvIwjxQziSD3fSd/tkw4aaUMYdGH/u+8iVw==);whiteSpace=wrap;html=1;strokeColor=#000000;fillColor=#ffffff;fontSize=10;align=left;" parent="1" vertex="1">
                    <mxGeometry x="1080" y="235" width="80" height="170" as="geometry"/>
                </mxCell>
                <mxCell id="29aiM7jhphycKeGwUz8S-51" value="INSTRUCTION&lt;br&gt;[31:0]" style="text;html=1;align=left;verticalAlign=middle;resizable=0;points=[];autosize=1;fontSize=10;" parent="1" vertex="1">
                    <mxGeometry x="490" y="830" width="80" height="30" as="geometry"/>
                </mxCell>
                <mxCell id="29aiM7jhphycKeGwUz8S-53" value="PC&lt;br&gt;[31:0]" style="text;html=1;align=left;verticalAlign=middle;resizable=0;points=[];autosize=1;fontSize=10;" parent="1" vertex="1">
                    <mxGeometry x="665" y="840" width="40" height="30" as="geometry"/>
                </mxCell>
                <mxCell id="29aiM7jhphycKeGwUz8S-55" style="edgeStyle=orthogonalEdgeStyle;rounded=0;orthogonalLoop=1;jettySize=auto;html=1;entryX=0;entryY=0.25;entryDx=0;entryDy=0;fontSize=10;" parent="1" source="29aiM7jhphycKeGwUz8S-54" target="29aiM7jhphycKeGwUz8S-6" edge="1">
                    <mxGeometry relative="1" as="geometry">
                        <Array as="points">
                            <mxPoint x="530" y="510"/>
                            <mxPoint x="530" y="510"/>
                        </Array>
                    </mxGeometry>
                </mxCell>
                <mxCell id="29aiM7jhphycKeGwUz8S-56" style="edgeStyle=orthogonalEdgeStyle;rounded=0;orthogonalLoop=1;jettySize=auto;html=1;exitX=1;exitY=0.5;exitDx=0;exitDy=0;entryX=0.25;entryY=1;entryDx=0;entryDy=0;fontSize=10;" parent="1" source="29aiM7jhphycKeGwUz8S-54" target="29aiM7jhphycKeGwUz8S-3" edge="1">
                    <mxGeometry relative="1" as="geometry">
                        <Array as="points">
                            <mxPoint x="400" y="510"/>
                            <mxPoint x="450" y="510"/>
                            <mxPoint x="450" y="420"/>
                            <mxPoint x="800" y="420"/>
                        </Array>
                    </mxGeometry>
                </mxCell>
                <mxCell id="29aiM7jhphycKeGwUz8S-54" value="RESET" style="text;html=1;strokeColor=none;fillColor=none;align=right;verticalAlign=middle;whiteSpace=wrap;rounded=0;fontSize=10;" parent="1" vertex="1">
                    <mxGeometry x="350" y="500" width="40" height="20" as="geometry"/>
                </mxCell>
                <mxCell id="29aiM7jhphycKeGwUz8S-61" style="edgeStyle=orthogonalEdgeStyle;rounded=0;orthogonalLoop=1;jettySize=auto;html=1;exitX=1;exitY=0.5;exitDx=0;exitDy=0;entryX=0.75;entryY=1;entryDx=0;entryDy=0;fontSize=10;" parent="1" source="29aiM7jhphycKeGwUz8S-57" target="29aiM7jhphycKeGwUz8S-3" edge="1">
                    <mxGeometry relative="1" as="geometry">
                        <Array as="points">
                            <mxPoint x="380" y="530"/>
                            <mxPoint x="460" y="530"/>
                            <mxPoint x="460" y="430"/>
                            <mxPoint x="840" y="430"/>
                        </Array>
                    </mxGeometry>
                </mxCell>
                <mxCell id="14" style="edgeStyle=none;html=1;entryX=0;entryY=0.75;entryDx=0;entryDy=0;" parent="1" target="29aiM7jhphycKeGwUz8S-6" edge="1">
                    <mxGeometry relative="1" as="geometry">
                        <mxPoint x="460" y="530" as="sourcePoint"/>
                    </mxGeometry>
                </mxCell>
                <mxCell id="29aiM7jhphycKeGwUz8S-57" value="CLK" style="text;html=1;strokeColor=none;fillColor=none;align=right;verticalAlign=middle;whiteSpace=wrap;rounded=0;fontSize=10;" parent="1" vertex="1">
                    <mxGeometry x="340" y="520" width="40" height="20" as="geometry"/>
                </mxCell>
                <mxCell id="29aiM7jhphycKeGwUz8S-65" value="" style="triangle;whiteSpace=wrap;html=1;strokeColor=#000000;fillColor=#ffffff;fontSize=10;align=right;rotation=-90;" parent="1" vertex="1">
                    <mxGeometry x="837" y="393" width="6" height="8" as="geometry"/>
                </mxCell>
                <mxCell id="29aiM7jhphycKeGwUz8S-66" value="REGOUT1 [7:0]" style="text;html=1;strokeColor=none;fillColor=none;align=center;verticalAlign=middle;whiteSpace=wrap;rounded=0;fontSize=10;" parent="1" vertex="1">
                    <mxGeometry x="860" y="340" width="80" height="20" as="geometry"/>
                </mxCell>
                <mxCell id="29aiM7jhphycKeGwUz8S-67" value="ALUOP [2:0]" style="text;html=1;align=center;verticalAlign=middle;resizable=0;points=[];autosize=1;fontSize=10;" parent="1" vertex="1">
                    <mxGeometry x="1050" y="405" width="70" height="20" as="geometry"/>
                </mxCell>
                <mxCell id="29aiM7jhphycKeGwUz8S-68" value="ALURESULT [7:0]" style="text;html=1;align=center;verticalAlign=middle;resizable=0;points=[];autosize=1;fontSize=10;rotation=90;" parent="1" vertex="1">
                    <mxGeometry x="1140" y="373" width="100" height="20" as="geometry"/>
                </mxCell>
                <mxCell id="29aiM7jhphycKeGwUz8S-74" value="CPU" style="text;html=1;align=center;verticalAlign=middle;resizable=0;points=[];autosize=1;fontSize=12;" parent="1" vertex="1">
                    <mxGeometry x="1170" y="160" width="40" height="20" as="geometry"/>
                </mxCell>
                <mxCell id="WObx5jX7VINWGaRtbj0l-8" value="&lt;div&gt;&lt;b&gt;PC Adder&lt;/b&gt;&lt;/div&gt;" style="rounded=0;whiteSpace=wrap;html=1;" parent="1" vertex="1">
                    <mxGeometry x="720" y="620" width="50" height="60" as="geometry"/>
                </mxCell>
                <mxCell id="WObx5jX7VINWGaRtbj0l-10" value="" style="endArrow=classic;html=1;entryX=0;entryY=0.5;entryDx=0;entryDy=0;exitX=1;exitY=0.5;exitDx=0;exitDy=0;edgeStyle=orthogonalEdgeStyle;rounded=0;" parent="1" source="29aiM7jhphycKeGwUz8S-6" target="WObx5jX7VINWGaRtbj0l-8" edge="1">
                    <mxGeometry width="50" height="50" relative="1" as="geometry">
                        <mxPoint x="680" y="650" as="sourcePoint"/>
                        <mxPoint x="875" y="530" as="targetPoint"/>
                    </mxGeometry>
                </mxCell>
                <mxCell id="WObx5jX7VINWGaRtbj0l-11" value="PC&lt;br&gt;[31:0]" style="text;html=1;align=left;verticalAlign=middle;resizable=0;points=[];autosize=1;fontSize=10;" parent="1" vertex="1">
                    <mxGeometry x="680" y="615" width="40" height="30" as="geometry"/>
                </mxCell>
                <mxCell id="WObx5jX7VINWGaRtbj0l-12" value="&lt;b&gt;Target Addr Adder&lt;br&gt;&lt;/b&gt;" style="rounded=0;whiteSpace=wrap;html=1;" parent="1" vertex="1">
                    <mxGeometry x="847" y="605" width="93" height="60" as="geometry"/>
                </mxCell>
                <mxCell id="WObx5jX7VINWGaRtbj0l-14" value="" style="endArrow=classic;html=1;exitX=1;exitY=0.5;exitDx=0;exitDy=0;rounded=0;jumpStyle=none;edgeStyle=orthogonalEdgeStyle;entryX=0;entryY=0.75;entryDx=0;entryDy=0;" parent="1" source="WObx5jX7VINWGaRtbj0l-8" target="WObx5jX7VINWGaRtbj0l-12" edge="1">
                    <mxGeometry width="50" height="50" relative="1" as="geometry">
                        <mxPoint x="660" y="670" as="sourcePoint"/>
                        <mxPoint x="710" y="620" as="targetPoint"/>
                        <Array as="points">
                            <mxPoint x="820" y="650"/>
                            <mxPoint x="820" y="650"/>
                            <mxPoint x="820" y="605"/>
                        </Array>
                    </mxGeometry>
                </mxCell>
                <mxCell id="WObx5jX7VINWGaRtbj0l-15" value="IncrementedPC &lt;br&gt;[31:0]" style="text;html=1;align=left;verticalAlign=middle;resizable=0;points=[];autosize=1;fontSize=10;" parent="1" vertex="1">
                    <mxGeometry x="770" y="611" width="90" height="40" as="geometry"/>
                </mxCell>
                <mxCell id="WObx5jX7VINWGaRtbj0l-17" value="" style="endArrow=classic;html=1;strokeColor=#000000;entryX=0;entryY=0.25;entryDx=0;entryDy=0;edgeStyle=orthogonalEdgeStyle;rounded=0;" parent="1" target="WObx5jX7VINWGaRtbj0l-12" edge="1">
                    <mxGeometry width="50" height="50" relative="1" as="geometry">
                        <mxPoint x="470" y="575" as="sourcePoint"/>
                        <mxPoint x="588" y="550" as="targetPoint"/>
                        <Array as="points">
                            <mxPoint x="820" y="575"/>
                            <mxPoint x="820" y="620"/>
                        </Array>
                    </mxGeometry>
                </mxCell>
                <mxCell id="WObx5jX7VINWGaRtbj0l-18" value="OFFSET [7:0]" style="text;html=1;align=center;verticalAlign=middle;resizable=0;points=[];autosize=1;fontSize=10;" parent="1" vertex="1">
                    <mxGeometry x="745" y="554" width="80" height="20" as="geometry"/>
                </mxCell>
                <mxCell id="WObx5jX7VINWGaRtbj0l-33" value="" style="endArrow=classic;html=1;exitX=0.708;exitY=0.665;exitDx=0;exitDy=0;exitPerimeter=0;entryX=0.25;entryY=0;entryDx=0;entryDy=0;edgeStyle=orthogonalEdgeStyle;rounded=0;startArrow=none;" parent="1" source="25" target="0l_NnO8eirSqvgox17tR-4" edge="1">
                    <mxGeometry width="50" height="50" relative="1" as="geometry">
                        <mxPoint x="1060" y="420" as="sourcePoint"/>
                        <mxPoint x="1030" y="511.75" as="targetPoint"/>
                        <Array as="points">
                            <mxPoint x="1035" y="490"/>
                        </Array>
                    </mxGeometry>
                </mxCell>
                <mxCell id="WObx5jX7VINWGaRtbj0l-34" value="ZERO&lt;br&gt;" style="text;html=1;align=center;verticalAlign=middle;resizable=0;points=[];autosize=1;fontSize=10;rotation=90;" parent="1" vertex="1">
                    <mxGeometry x="1135" y="348" width="50" height="30" as="geometry"/>
                </mxCell>
                <mxCell id="WObx5jX7VINWGaRtbj0l-47" style="edgeStyle=orthogonalEdgeStyle;rounded=0;jumpStyle=none;orthogonalLoop=1;jettySize=auto;html=1;exitX=0.5;exitY=0;exitDx=0;exitDy=0;entryX=0.25;entryY=1;entryDx=0;entryDy=0;strokeColor=#000000;" parent="1" source="WObx5jX7VINWGaRtbj0l-41" target="29aiM7jhphycKeGwUz8S-6" edge="1">
                    <mxGeometry relative="1" as="geometry">
                        <Array as="points">
                            <mxPoint x="1264" y="704"/>
                            <mxPoint x="1264" y="770"/>
                            <mxPoint x="580" y="770"/>
                        </Array>
                    </mxGeometry>
                </mxCell>
                <mxCell id="WObx5jX7VINWGaRtbj0l-41" value="M&lt;br&gt;U&lt;br&gt;X" style="shape=trapezoid;perimeter=trapezoidPerimeter;whiteSpace=wrap;html=1;rotation=90;horizontal=0;" parent="1" vertex="1">
                    <mxGeometry x="1190" y="690" width="80" height="27.5" as="geometry"/>
                </mxCell>
                <mxCell id="WObx5jX7VINWGaRtbj0l-43" value="" style="endArrow=classic;html=1;strokeColor=#000000;entryX=0.75;entryY=1;entryDx=0;entryDy=0;edgeStyle=orthogonalEdgeStyle;rounded=0;exitX=1;exitY=0.5;exitDx=0;exitDy=0;" parent="1" source="WObx5jX7VINWGaRtbj0l-8" target="WObx5jX7VINWGaRtbj0l-41" edge="1">
                    <mxGeometry width="50" height="50" relative="1" as="geometry">
                        <mxPoint x="1000" y="650" as="sourcePoint"/>
                        <mxPoint x="1230" y="530" as="targetPoint"/>
                        <Array as="points">
                            <mxPoint x="820" y="650"/>
                            <mxPoint x="820" y="724"/>
                        </Array>
                    </mxGeometry>
                </mxCell>
                <mxCell id="WObx5jX7VINWGaRtbj0l-44" value="IncrementedPC&lt;br&gt;[31:0]" style="text;html=1;align=left;verticalAlign=middle;resizable=0;points=[];autosize=1;fontSize=10;" parent="1" vertex="1">
                    <mxGeometry x="1128" y="717.5" width="90" height="40" as="geometry"/>
                </mxCell>
                <mxCell id="WObx5jX7VINWGaRtbj0l-48" value="PC_new&lt;br&gt;[31:0]" style="text;html=1;align=left;verticalAlign=middle;resizable=0;points=[];autosize=1;fontSize=10;" parent="1" vertex="1">
                    <mxGeometry x="1270" y="695" width="60" height="40" as="geometry"/>
                </mxCell>
                <mxCell id="0l_NnO8eirSqvgox17tR-4" value="" style="rounded=0;whiteSpace=wrap;html=1;direction=east;" parent="1" vertex="1">
                    <mxGeometry x="1000" y="511" width="150" height="119" as="geometry"/>
                </mxCell>
                <mxCell id="0l_NnO8eirSqvgox17tR-5" value="" style="endArrow=classic;html=1;edgeStyle=orthogonalEdgeStyle;rounded=0;elbow=vertical;" parent="1" edge="1">
                    <mxGeometry width="50" height="50" relative="1" as="geometry">
                        <mxPoint x="620" y="380" as="sourcePoint"/>
                        <mxPoint x="1000" y="580" as="targetPoint"/>
                        <Array as="points">
                            <mxPoint x="620" y="480"/>
                            <mxPoint x="970" y="480"/>
                            <mxPoint x="970" y="580"/>
                        </Array>
                    </mxGeometry>
                </mxCell>
                <mxCell id="0l_NnO8eirSqvgox17tR-21" value="FLOW CONTROL&lt;br&gt;&amp;nbsp;COMBINATIONAL UNIT" style="text;html=1;align=center;verticalAlign=middle;resizable=0;points=[];autosize=1;fontSize=10;rotation=0;" parent="1" vertex="1">
                    <mxGeometry x="1010" y="544" width="130" height="40" as="geometry"/>
                </mxCell>
                <mxCell id="0l_NnO8eirSqvgox17tR-22" value="" style="endArrow=classic;html=1;exitX=1;exitY=0.5;exitDx=0;exitDy=0;entryX=0.25;entryY=1;entryDx=0;entryDy=0;edgeStyle=orthogonalEdgeStyle;rounded=0;" parent="1" source="WObx5jX7VINWGaRtbj0l-12" target="WObx5jX7VINWGaRtbj0l-41" edge="1">
                    <mxGeometry width="50" height="50" relative="1" as="geometry">
                        <mxPoint x="1060" y="720" as="sourcePoint"/>
                        <mxPoint x="1110" y="670" as="targetPoint"/>
                        <Array as="points">
                            <mxPoint x="990" y="635"/>
                            <mxPoint x="990" y="684"/>
                        </Array>
                    </mxGeometry>
                </mxCell>
                <mxCell id="0l_NnO8eirSqvgox17tR-23" value="TARGET_ADDR&lt;br&gt;[31:0]" style="text;html=1;align=left;verticalAlign=middle;resizable=0;points=[];autosize=1;fontSize=10;" parent="1" vertex="1">
                    <mxGeometry x="940" y="630" width="100" height="40" as="geometry"/>
                </mxCell>
                <mxCell id="0l_NnO8eirSqvgox17tR-24" value="TARGET_ADDR&lt;br&gt;[31:0]" style="text;html=1;align=left;verticalAlign=middle;resizable=0;points=[];autosize=1;fontSize=10;" parent="1" vertex="1">
                    <mxGeometry x="1110" y="645" width="100" height="40" as="geometry"/>
                </mxCell>
                <mxCell id="0l_NnO8eirSqvgox17tR-25" value="" style="endArrow=classic;html=1;exitX=1.001;exitY=0.543;exitDx=0;exitDy=0;exitPerimeter=0;entryX=0;entryY=0.25;entryDx=0;entryDy=0;edgeStyle=orthogonalEdgeStyle;rounded=0;" parent="1" source="0l_NnO8eirSqvgox17tR-4" target="WObx5jX7VINWGaRtbj0l-41" edge="1">
                    <mxGeometry width="50" height="50" relative="1" as="geometry">
                        <mxPoint x="1050" y="650" as="sourcePoint"/>
                        <mxPoint x="1100" y="600" as="targetPoint"/>
                        <Array as="points">
                            <mxPoint x="1235" y="587"/>
                        </Array>
                    </mxGeometry>
                </mxCell>
                <mxCell id="0l_NnO8eirSqvgox17tR-26" value="FLOW_SELECT" style="text;html=1;align=center;verticalAlign=middle;resizable=0;points=[];autosize=1;fontSize=10;rotation=90;" parent="1" vertex="1">
                    <mxGeometry x="1193" y="610" width="100" height="30" as="geometry"/>
                </mxCell>
                <mxCell id="0l_NnO8eirSqvgox17tR-27" value="" style="endArrow=classic;html=1;exitX=0.75;exitY=1;exitDx=0;exitDy=0;entryX=1;entryY=0.5;entryDx=0;entryDy=0;edgeStyle=orthogonalEdgeStyle;rounded=0;" parent="1" source="29aiM7jhphycKeGwUz8S-6" target="29aiM7jhphycKeGwUz8S-4" edge="1">
                    <mxGeometry width="50" height="50" relative="1" as="geometry">
                        <mxPoint x="820" y="740" as="sourcePoint"/>
                        <mxPoint x="870" y="690" as="targetPoint"/>
                        <Array as="points">
                            <mxPoint x="620" y="740"/>
                            <mxPoint x="700" y="740"/>
                            <mxPoint x="700" y="870"/>
                        </Array>
                    </mxGeometry>
                </mxCell>
                <mxCell id="0l_NnO8eirSqvgox17tR-30" value="&lt;span style=&quot;font-size: 6px&quot;&gt;FLOW_SELECT&lt;/span&gt;" style="text;html=1;align=center;verticalAlign=middle;resizable=0;points=[];autosize=1;fontSize=10;rotation=0;" parent="1" vertex="1">
                    <mxGeometry x="1155" y="555.5" width="70" height="30" as="geometry"/>
                </mxCell>
                <mxCell id="29aiM7jhphycKeGwUz8S-64" value="" style="triangle;whiteSpace=wrap;html=1;strokeColor=#000000;fillColor=#ffffff;fontSize=10;align=right;" parent="1" vertex="1">
                    <mxGeometry x="560" y="528" width="10" height="8" as="geometry"/>
                </mxCell>
                <mxCell id="24" value="BRANCH_SELECT" style="text;html=1;strokeColor=none;fillColor=none;align=center;verticalAlign=middle;whiteSpace=wrap;rounded=0;" parent="1" vertex="1">
                    <mxGeometry x="885" y="480" width="60" height="30" as="geometry"/>
                </mxCell>
                <mxCell id="26" value="" style="endArrow=none;html=1;exitX=0.708;exitY=0.665;exitDx=0;exitDy=0;exitPerimeter=0;entryX=0.25;entryY=0;entryDx=0;entryDy=0;edgeStyle=orthogonalEdgeStyle;rounded=0;" parent="1" source="29aiM7jhphycKeGwUz8S-42" target="25" edge="1">
                    <mxGeometry width="50" height="50" relative="1" as="geometry">
                        <mxPoint x="1136.64" y="348.04999999999995" as="sourcePoint"/>
                        <mxPoint x="1037.5" y="511" as="targetPoint"/>
                        <Array as="points">
                            <mxPoint x="1150" y="348"/>
                            <mxPoint x="1150" y="490"/>
                        </Array>
                    </mxGeometry>
                </mxCell>
                <mxCell id="25" value="ZERO" style="text;html=1;strokeColor=none;fillColor=none;align=center;verticalAlign=middle;whiteSpace=wrap;rounded=0;" parent="1" vertex="1">
                    <mxGeometry x="1020" y="470" width="60" height="30" as="geometry"/>
                </mxCell>
            </root>
        </mxGraphModel>
    </diagram>
</mxfile>